# File created by Blade
# Date/Time:  Tue Apr 07 20:17:56 2015
# Frame Rate: 120.000 fps
#------------------------------------------------------
:FULLY-SPECIFIED
:DEGREES
479
root 5.473939 32.983592 -11.162098 3.743499 -24.909994 -29.821072
Spine 27.684091 15.331034 23.986214
Head -24.136938 -0.045876 6.999057
LeftShoulder -17.999694 40.390899 14.274040
LeftArm 56.529245 -18.596719 -81.716107
LeftForeArm -0.426740 -0.000000 23.651840
LeftHand 10.662116 0.000000 4.153592
LeftHandThumb1 -26.253704 0.000000 33.147579
RightShoulder 12.058330 9.407979 -9.088130
RightArm 18.791423 40.669852 77.687734
RightForeArm 73.635054 -0.000000 -1.207716
RightHand 10.429775 0.000000 23.881417
RightHandThumb1 -24.326973 -0.000000 -32.862282
LeftUpLeg -5.886956 8.714870 22.449822
LeftLeg 26.335913 -0.000000 -0.000000
LeftFoot -22.529980 20.517573 -18.602364
LeftToeBase -3.014761 -0.000000 0.000000
RightUpLeg -128.613613 -30.217424 24.161041
RightLeg 92.974699 -0.000000 -0.000000
RightFoot 39.340459 -18.585970 6.353236
RightToeBase 33.139430 -0.000000 -0.000000
480
root 5.483477 32.981296 -11.153464 3.756335 -24.935329 -29.802512
Spine 27.702934 15.277568 23.892159
Head -24.116842 0.090374 7.047155
LeftShoulder -17.993062 40.457241 14.371308
LeftArm 56.555885 -18.414044 -81.685647
LeftForeArm -0.343889 0.000000 23.463519
LeftHand 10.800167 -0.000000 4.239428
LeftHandThumb1 -26.253704 0.000000 33.147579
RightShoulder 12.232740 9.301002 -9.227408
RightArm 18.384342 41.824793 77.587022
RightForeArm 71.924814 -0.000000 -0.245584
RightHand 10.900828 -0.000000 24.495811
RightHandThumb1 -24.326973 -0.000000 -32.862282
LeftUpLeg -5.936905 8.759433 22.422818
LeftLeg 26.433974 -0.000000 -0.000000
LeftFoot -22.431538 20.455616 -18.563549
LeftToeBase -3.126101 -0.000000 0.000000
RightUpLeg -128.566329 -30.021622 24.304577
RightLeg 93.538946 -0.000000 -0.000000
RightFoot 39.455895 -18.475172 6.396507
RightToeBase 33.061079 -0.000000 -0.000000
481
root 5.493229 32.979173 -11.141840 3.771041 -24.948590 -29.752014
Spine 27.693342 15.232151 23.754945
Head -24.134920 0.210600 7.144276
LeftShoulder -18.032384 40.491897 14.431999
LeftArm 56.585038 -18.216775 -81.602176
LeftForeArm -0.299135 -0.000000 23.253790
LeftHand 10.892944 0.000000 4.354326
LeftHandThumb1 -26.253704 0.000000 33.147579
RightShoulder 12.423325 9.234991 -9.354386
RightArm 18.046245 43.097478 77.620450
RightForeArm 70.186690 0.000000 0.740870
RightHand 11.063956 0.000000 24.680059
RightHandThumb1 -24.326973 -0.000000 -32.862282
LeftUpLeg -5.996353 8.776452 22.355605
LeftLeg 26.503969 -0.000000 -0.000000
LeftFoot -22.288225 20.481467 -18.458909
LeftToeBase -3.264777 -0.000000 0.000000
RightUpLeg -128.575777 -29.871591 24.525174
RightLeg 94.136632 -0.000000 -0.000000
RightFoot 39.643476 -18.292757 6.416717
RightToeBase 33.156444 -0.000000 -0.000000
482
root 5.504564 32.977783 -11.128736 3.775999 -24.962280 -29.661737
Spine 27.675943 15.234094 23.583092
Head -24.173878 0.301874 7.277129
LeftShoulder -18.032663 40.474656 14.521691
LeftArm 56.572762 -18.006763 -81.458612
LeftForeArm -0.341428 -0.000000 23.062660
LeftHand 10.915853 -0.000000 4.511987
LeftHandThumb1 -26.253704 0.000000 33.147579
RightShoulder 12.602230 9.281145 -9.425604
RightArm 17.714517 44.239766 77.611521
RightForeArm 69.021728 0.000000 1.520334
RightHand 11.153763 -0.000000 24.766520
RightHandThumb1 -24.326973 -0.000000 -32.862282
LeftUpLeg -6.059402 8.880713 22.253106
LeftLeg 26.554554 -0.000000 -0.000000
LeftFoot -22.058750 20.486079 -18.240448
LeftToeBase -3.539783 -0.000000 0.000000
RightUpLeg -128.599099 -29.736677 24.791069
RightLeg 94.766591 -0.000000 -0.000000
RightFoot 39.719209 -18.128156 6.469832
RightToeBase 33.448175 -0.000000 -0.000000
483
root 5.520222 32.974549 -11.115818 3.809160 -25.004413 -29.511419
Spine 27.621938 15.325072 23.361270
Head -24.240212 0.294348 7.415434
LeftShoulder -18.010907 40.368706 14.620666
LeftArm 56.567995 -17.834896 -81.360180
LeftForeArm -0.398029 -0.000000 22.814572
LeftHand 11.046362 -0.000000 4.447351
LeftHandThumb1 -26.253704 0.000000 33.147579
RightShoulder 12.683577 9.389285 -9.469233
RightArm 17.457221 45.188107 77.644020
RightForeArm 68.380987 0.000000 2.203317
RightHand 10.818622 -0.000000 24.645149
RightHandThumb1 -24.326973 -0.000000 -32.862282
LeftUpLeg -6.140751 8.901296 22.055227
LeftLeg 26.545783 -0.000000 -0.000000
LeftFoot -21.844389 20.658860 -18.029301
LeftToeBase -3.895851 -0.000000 0.000000
RightUpLeg -128.679401 -29.548737 25.080255
RightLeg 95.400982 -0.000000 -0.000000
RightFoot 39.870348 -17.924388 6.258502
RightToeBase 33.626630 -0.000000 -0.000000
484
root 5.534625 32.974056 -11.100111 3.828831 -25.009627 -29.389823
Spine 27.588515 15.407108 23.203492
Head -24.344123 0.238158 7.515781
LeftShoulder -18.001491 40.245700 14.656315
LeftArm 56.598905 -17.667171 -81.225045
LeftForeArm -0.441761 -0.000000 22.574081
LeftHand 11.105370 0.000000 4.496410
LeftHandThumb1 -26.253704 0.000000 33.147579
RightShoulder 12.673658 9.469833 -9.512125
RightArm 17.360731 45.822258 77.726509
RightForeArm 68.190281 0.000000 2.765757
RightHand 10.489014 -0.000000 24.578095
RightHandThumb1 -24.326973 -0.000000 -32.862282
LeftUpLeg -6.188566 8.836309 21.882946
LeftLeg 26.502605 -0.000000 -0.000000
LeftFoot -21.609044 20.912789 -17.727343
LeftToeBase -4.227748 -0.000000 0.000000
RightUpLeg -128.745506 -29.492746 25.450460
RightLeg 96.075825 -0.000000 -0.000000
RightFoot 39.860033 -17.701501 6.421070
RightToeBase 34.131597 -0.000000 -0.000000
